<svg id="e5e087a9-0310-440d-ac38-2ea6f5af1ee3" data-name="Layer 1" xmlns="http://www.w3.org/2000/svg" viewBox="0 0 350 350"><defs><style>.deb849d2-df87-4af7-9fba-34fedc9621b0{fill:#41b655;}.\37 2fdb0b4-cc85-4199-bd42-4e47928164dd{fill:#fff;}</style></defs><title>skill</title><circle class="deb849d2-df87-4af7-9fba-34fedc9621b0" cx="175" cy="175" r="174.5"/><path class="72fdb0b4-cc85-4199-bd42-4e47928164dd" d="M113.48,145a10.17,10.17,0,0,0-7.47,3.07,10.05,10.05,0,0,0-3.07,7.37v44A10.48,10.48,0,0,0,113.48,210a10,10,0,0,0,7.42-3.07,10.26,10.26,0,0,0,3-7.47v-44A10.48,10.48,0,0,0,113.48,145Z"/><path class="72fdb0b4-cc85-4199-bd42-4e47928164dd" d="M198.24,105.49l7.27-13.41a1.35,1.35,0,0,0-.51-2,1.42,1.42,0,0,0-2,.61l-7.37,13.51a51.34,51.34,0,0,0-41.15,0l-7.37-13.51a1.42,1.42,0,0,0-2-.61,1.35,1.35,0,0,0-.51,2l7.27,13.41a44.88,44.88,0,0,0-17.61,15.71,39.69,39.69,0,0,0-6.55,22.06h94.68a39.7,39.7,0,0,0-6.55-22.06A45.07,45.07,0,0,0,198.24,105.49Zm-42,19.5a3.84,3.84,0,0,1-2.82,1.18,3.66,3.66,0,0,1-2.76-1.18,4.08,4.08,0,0,1,0-5.63,3.68,3.68,0,0,1,2.76-1.18,4,4,0,0,1,2.82,6.8Zm43.14,0a3.67,3.67,0,0,1-2.76,1.18,4,4,0,0,1,0-8,3.68,3.68,0,0,1,2.76,1.18,4.08,4.08,0,0,1,0,5.63Z"/><path class="72fdb0b4-cc85-4199-bd42-4e47928164dd" d="M128,215.12a11.18,11.18,0,0,0,11.26,11.26h7.58l.1,23.24a10.17,10.17,0,0,0,3.07,7.47,10.05,10.05,0,0,0,7.37,3.07,10.48,10.48,0,0,0,10.54-10.54V226.38h14.13v23.24a10.54,10.54,0,1,0,21.08,0V226.38h7.68A11.18,11.18,0,0,0,222,215.13V147H128Z"/><path class="72fdb0b4-cc85-4199-bd42-4e47928164dd" d="M236.52,145a10.14,10.14,0,0,0-7.37,3,10,10,0,0,0-3.07,7.42v44a10.17,10.17,0,0,0,3.07,7.47,10.05,10.05,0,0,0,7.37,3.07,10.48,10.48,0,0,0,10.54-10.54v-44A10,10,0,0,0,244,148,10.27,10.27,0,0,0,236.52,145Z"/></svg>