<svg id="b90b8303-8032-490e-a011-669e9cfd3cf6" data-name="Layer 1" xmlns="http://www.w3.org/2000/svg" viewBox="0 0 350 350"><defs><style>.\30 a491ae3-2b28-4973-9f12-b7136f999dba{fill:#ec008c;}.d5f8d571-fe83-4869-a05d-cd6736a9e50f{fill:#fff;}</style></defs><title>skill</title><rect class="0a491ae3-2b28-4973-9f12-b7136f999dba" x="25" y="25" width="300" height="300"/><path id="20798d0c-654e-4d3d-9b4a-0ce583c5c34c" data-name="j" class="d5f8d571-fe83-4869-a05d-cd6736a9e50f" d="M131,282.29l20.16-12.2c3.89,6.89,7.43,12.73,15.91,12.73,8.13,0,13.26-3.18,13.26-15.56V183.11H205.1v84.51c0,25.64-15,37.31-37,37.31-19.8,0-31.29-10.26-37.13-22.63"/><path id="7e201037-134e-4c91-a748-e421f9e7e31b" data-name="s" class="d5f8d571-fe83-4869-a05d-cd6736a9e50f" d="M218.55,279.64,238.7,268c5.31,8.66,12.2,15,24.4,15,10.26,0,16.8-5.13,16.8-12.2,0-8.49-6.72-11.49-18-16.44l-6.19-2.65c-17.86-7.6-29.7-17.15-29.7-37.3,0-18.56,14.14-32.71,36.25-32.71,15.74,0,27.05,5.48,35.18,19.8l-19.27,12.38c-4.24-7.6-8.84-10.61-15.91-10.61-7.25,0-11.85,4.6-11.85,10.61,0,7.43,4.6,10.43,15.2,15l6.19,2.65c21,9,32.89,18.21,32.89,38.9,0,22.28-17.5,34.48-41,34.48-23,0-37.84-11-45.08-25.28"/></svg>