<svg xmlns="http://www.w3.org/2000/svg" viewBox="0 0 500 325.19"><title>form-factor</title><path d="M456.56,17.5a12,12,0,0,1,12,12V295.69a12,12,0,0,1-12,12H43.44a12,12,0,0,1-12-12V29.5a12,12,0,0,1,12-12H456.56m0-10H43.44a22,22,0,0,0-22,22V295.69a22,22,0,0,0,22,22H456.56a22,22,0,0,0,22-22V29.5a22,22,0,0,0-22-22Z" style="fill:#00aeef"/><path d="M456.56,75.35a12,12,0,0,1,12,12V295.69a12,12,0,0,1-12,12H192.61a12,12,0,0,1-12-12V87.35a12,12,0,0,1,12-12H456.56m0-10H192.61a22,22,0,0,0-22,22V295.69a22,22,0,0,0,22,22H456.56a22,22,0,0,0,22-22V87.35a22,22,0,0,0-22-22Z" style="fill:#2bb673"/><path d="M456.56,75.35a12,12,0,0,1,12,12V295.69a12,12,0,0,1-12,12H192.61a12,12,0,0,1-12-12V87.35a12,12,0,0,1,12-12H456.56m0-10H192.61a22,22,0,0,0-22,22V295.69a22,22,0,0,0,22,22H456.56a22,22,0,0,0,22-22V87.35a22,22,0,0,0-22-22Z" style="fill:#2bb673"/><rect x="353.56" y="108.69" width="120" height="204" rx="17" ry="17" style="fill:#fff"/><path d="M456.56,113.69a12,12,0,0,1,12,12v170a12,12,0,0,1-12,12h-86a12,12,0,0,1-12-12v-170a12,12,0,0,1,12-12h86m0-10h-86a22,22,0,0,0-22,22v170a22,22,0,0,0,22,22h86a22,22,0,0,0,22-22v-170a22,22,0,0,0-22-22Z" style="fill:#e95e9d"/><rect x="384.32" y="103.82" width="58.48" height="20.92" rx="10.46" ry="10.46" style="fill:#e95e9d"/></svg>