<svg xmlns="http://www.w3.org/2000/svg" viewBox="0 0 500 325.19"><title>form</title><path d="M475,10.5a12,12,0,0,1,12,12V303.27a12,12,0,0,1-12,12H23.4a12,12,0,0,1-12-12V22.5a12,12,0,0,1,12-12H475m0-10H23.4a22,22,0,0,0-22,22V303.27a22,22,0,0,0,22,22H475a22,22,0,0,0,22-22V22.5a22,22,0,0,0-22-22Z" style="fill:#8bd7f8"/><path d="M475,71.25a12,12,0,0,1,12,12v220a12,12,0,0,1-12,12H185.69a12,12,0,0,1-12-12v-220a12,12,0,0,1,12-12H475m0-10H185.69a22,22,0,0,0-22,22v220a22,22,0,0,0,22,22H475a22,22,0,0,0,22-22v-220a22,22,0,0,0-22-22Z" style="fill:#2bb673"/><path d="M475,71.25a12,12,0,0,1,12,12v220a12,12,0,0,1-12,12H185.69a12,12,0,0,1-12-12v-220a12,12,0,0,1,12-12H475m0-10H185.69a22,22,0,0,0-22,22v220a22,22,0,0,0,22,22H475a22,22,0,0,0,22-22v-220a22,22,0,0,0-22-22Z" style="fill:#1bb89b"/><rect x="362.29" y="106.53" width="129.67" height="213.75" rx="17" ry="17" style="fill:#fff"/><path d="M475,111.53a12,12,0,0,1,12,12V303.27a12,12,0,0,1-12,12H379.29a12,12,0,0,1-12-12V123.53a12,12,0,0,1,12-12H475m0-10H379.29a22,22,0,0,0-22,22V303.27a22,22,0,0,0,22,22H475a22,22,0,0,0,22-22V123.53a22,22,0,0,0-22-22Z" style="fill:#eea5c2"/><rect x="395.31" y="101.16" width="63.62" height="21.98" rx="10.46" ry="10.46" style="fill:#eea5c2"/></svg>