<?xml version="1.0" standalone="no"?>
<!DOCTYPE svg PUBLIC "-//W3C//DTD SVG 20010904//EN"
 "http://www.w3.org/TR/2001/REC-SVG-20010904/DTD/svg10.dtd">
<svg version="1.0" xmlns="http://www.w3.org/2000/svg"
 width="1067.000000pt" height="1067.000000pt" viewBox="0 0 1067.000000 1067.000000"
 preserveAspectRatio="xMidYMid meet">
<metadata>
Created by potrace 1.11, written by Peter Selinger 2001-2013
</metadata>
<g transform="translate(0.000000,1067.000000) scale(0.100000,-0.100000)"
fill="#000000" stroke="none">
<path d="M0 5335 l0 -5335 5335 0 5335 0 0 5335 0 5335 -5335 0 -5335 0 0
-5335z m6314 5145 c488 -26 852 -113 1206 -289 554 -276 951 -684 1231 -1266
214 -445 342 -988 375 -1587 l7 -128 -795 0 -795 0 -7 143 c-14 293 -69 623
-136 830 -77 234 -183 416 -331 571 -195 204 -427 326 -726 382 -117 21 -432
30 -559 15 -515 -61 -978 -340 -1319 -795 -219 -294 -447 -761 -589 -1206
-126 -395 -200 -762 -350 -1745 -165 -1073 -175 -1168 -183 -1632 -6 -338 3
-509 37 -742 43 -293 105 -506 210 -716 184 -371 471 -607 839 -691 307 -70
704 -49 1011 53 417 138 764 424 1023 843 134 218 292 613 361 901 l6 27 192
6 c106 3 458 9 782 12 l589 7 -7 -49 c-35 -241 -167 -683 -286 -954 -453
-1034 -1288 -1775 -2332 -2069 -321 -91 -544 -121 -936 -128 -566 -10 -926 51
-1322 224 -723 317 -1231 901 -1520 1751 -220 642 -297 1452 -215 2252 20 189
227 1569 266 1770 252 1288 771 2367 1499 3114 309 316 592 529 946 713 573
296 1156 419 1828 383z"/>
</g>
</svg>
