<?xml version="1.0" standalone="no"?>
<!DOCTYPE svg PUBLIC "-//W3C//DTD SVG 20010904//EN"
 "http://www.w3.org/TR/2001/REC-SVG-20010904/DTD/svg10.dtd">
<svg version="1.0" xmlns="http://www.w3.org/2000/svg"
 width="700.000000pt" height="700.000000pt" viewBox="0 0 700.000000 700.000000"
 preserveAspectRatio="xMidYMid meet">
<metadata>
Created by potrace 1.11, written by Peter Selinger 2001-2013
</metadata>
<g transform="translate(0.000000,700.000000) scale(0.100000,-0.100000)"
fill="#000000" stroke="none">
<path d="M3360 6974 c-230 -12 -459 -43 -655 -89 -1363 -321 -2406 -1435
-2634 -2815 -34 -204 -43 -332 -43 -570 0 -238 9 -366 43 -570 242 -1464 1395
-2617 2859 -2859 204 -34 332 -43 570 -43 238 0 366 9 570 43 1464 242 2617
1395 2859 2859 34 204 43 332 43 570 0 238 -9 366 -43 570 -242 1464 -1395
2617 -2859 2859 -209 34 -525 54 -710 45z m600 -1180 c337 -41 711 -172 979
-344 l81 -52 0 -310 0 -309 -28 23 c-223 182 -330 254 -503 338 -381 183 -809
235 -1230 150 -422 -86 -743 -328 -934 -704 -157 -309 -230 -741 -205 -1208
41 -742 301 -1221 795 -1459 189 -91 354 -131 612 -149 525 -36 1038 141 1430
495 28 25 54 45 57 45 4 0 5 -138 4 -307 l-3 -307 -95 -59 c-309 -191 -661
-309 -1044 -348 -154 -15 -503 -7 -656 16 -957 143 -1575 805 -1705 1826 -36
281 -30 654 16 938 104 654 435 1167 947 1468 390 230 929 323 1482 257z"/>
</g>
</svg>
