<?xml version="1.0" standalone="no"?>
<!DOCTYPE svg PUBLIC "-//W3C//DTD SVG 20010904//EN"
 "http://www.w3.org/TR/2001/REC-SVG-20010904/DTD/svg10.dtd">
<svg version="1.0" xmlns="http://www.w3.org/2000/svg"
 width="998.000000pt" height="998.000000pt" viewBox="0 0 998.000000 998.000000"
 preserveAspectRatio="xMidYMid meet">
<metadata>
Created by potrace 1.11, written by Peter Selinger 2001-2013
</metadata>
<g transform="translate(0.000000,998.000000) scale(0.100000,-0.100000)"
fill="#000000" stroke="none">
<path d="M16 8848 c-6 -29 -6 -866 0 -895 l4 -21 4980 0 4980 0 0 469 0 469
-4980 0 -4980 0 -4 -22z"/>
<path d="M0 5957 l0 -585 28 -24 c16 -12 41 -32 56 -43 16 -11 33 -25 40 -30
6 -6 76 -62 156 -124 80 -63 150 -120 156 -127 6 -8 14 -14 18 -14 3 0 64 -46
134 -102 71 -57 146 -116 168 -133 21 -16 52 -41 69 -55 16 -14 63 -50 103
-80 39 -30 72 -58 72 -62 0 -5 6 -8 14 -8 8 0 16 -3 18 -8 3 -7 424 -342 538
-429 30 -23 69 -54 87 -70 17 -15 42 -35 54 -43 12 -8 36 -26 53 -41 17 -14
73 -58 125 -99 52 -40 102 -79 110 -86 44 -36 191 -152 215 -169 16 -11 33
-24 40 -30 6 -5 34 -28 61 -50 28 -22 55 -44 62 -50 7 -5 25 -20 40 -32 15
-12 77 -60 136 -107 60 -47 110 -86 113 -86 2 0 13 -8 23 -18 11 -9 26 -22 33
-27 41 -32 164 -131 168 -135 3 -3 23 -19 45 -35 22 -16 47 -35 55 -42 8 -7
76 -60 150 -118 74 -59 144 -114 155 -123 12 -9 50 -39 85 -67 36 -27 67 -52
70 -55 3 -3 34 -28 70 -55 79 -61 99 -77 114 -90 6 -6 43 -35 81 -64 39 -30
72 -58 73 -63 2 -4 10 -8 17 -8 7 0 15 -4 17 -8 2 -4 29 -28 61 -52 31 -25 57
-48 57 -52 0 -5 7 -8 15 -8 8 0 15 -4 15 -8 0 -4 12 -15 28 -24 15 -9 38 -27
52 -40 14 -13 55 -45 90 -73 36 -27 67 -52 70 -55 3 -3 21 -17 42 -32 20 -15
42 -33 50 -40 7 -7 31 -26 53 -43 22 -16 47 -35 55 -42 8 -7 74 -58 145 -114
72 -56 162 -129 202 -161 39 -32 76 -58 81 -58 6 0 12 -4 14 -9 2 -5 44 -41
93 -80 50 -39 95 -74 100 -79 6 -4 64 -50 130 -102 66 -51 125 -98 130 -104
10 -11 71 -57 90 -69 8 -4 11 542 10 1774 0 1349 3 1779 12 1779 6 0 13 -3 15
-7 2 -5 21 -21 43 -37 22 -16 47 -36 55 -43 40 -35 180 -143 186 -143 4 0 12
-6 18 -14 9 -11 344 -275 469 -370 16 -11 34 -26 40 -32 13 -11 231 -181 287
-224 19 -14 47 -36 64 -50 17 -14 38 -30 46 -37 23 -19 172 -135 210 -163 18
-14 40 -32 49 -40 9 -8 41 -33 71 -55 30 -21 57 -42 60 -45 5 -5 139 -111 315
-248 44 -35 87 -69 96 -76 15 -13 109 -85 194 -150 22 -17 42 -34 45 -37 3 -3
39 -31 80 -62 41 -31 87 -68 102 -82 15 -14 30 -25 33 -25 5 0 97 -72 115 -90
3 -3 32 -25 65 -50 60 -46 82 -62 115 -91 10 -8 31 -24 46 -35 15 -10 34 -26
43 -34 9 -8 52 -42 95 -75 44 -33 84 -64 90 -70 6 -5 38 -30 71 -55 33 -25 62
-48 65 -51 3 -3 37 -30 75 -59 114 -88 248 -192 281 -219 17 -15 41 -33 54
-41 12 -8 30 -22 39 -31 9 -8 36 -31 61 -49 25 -19 51 -39 57 -45 7 -5 23 -18
35 -27 38 -29 143 -112 148 -118 3 -3 41 -32 85 -65 44 -33 82 -62 85 -66 3
-3 37 -30 75 -59 39 -30 75 -59 81 -64 6 -6 21 -18 34 -26 12 -8 34 -25 48
-37 103 -83 208 -163 214 -163 4 0 7 261 6 579 l0 579 -25 22 c-14 12 -45 37
-68 55 -24 17 -49 37 -56 44 -8 6 -43 34 -79 62 -36 27 -72 55 -80 62 -8 7
-76 59 -150 117 -74 57 -137 107 -140 110 -3 3 -32 25 -65 50 -33 25 -62 47
-65 50 -3 3 -45 37 -95 75 -49 38 -104 80 -121 94 -16 14 -45 37 -64 51 -18
14 -59 45 -90 70 -31 25 -72 56 -90 70 -18 14 -50 39 -71 55 -20 17 -49 39
-64 50 -16 11 -33 25 -39 30 -6 6 -31 26 -56 45 -25 19 -47 37 -50 40 -3 3
-21 17 -40 30 -19 14 -46 34 -60 46 -14 12 -72 59 -130 103 -58 45 -112 87
-120 94 -9 6 -45 34 -80 62 -36 27 -70 54 -77 60 -7 5 -18 15 -25 20 -16 13
-99 77 -116 90 -7 5 -21 17 -30 25 -10 8 -33 26 -52 40 -19 14 -42 30 -50 37
-8 7 -105 83 -215 169 -110 85 -213 166 -230 179 -16 14 -59 47 -95 75 -36 28
-74 58 -86 68 -11 9 -56 44 -100 77 -43 33 -81 62 -84 65 -3 3 -25 21 -50 40
-25 19 -47 37 -50 40 -3 3 -26 21 -52 40 -27 18 -48 37 -48 42 0 4 -5 8 -10 8
-6 0 -36 21 -68 46 -31 26 -74 61 -96 78 -21 17 -46 35 -55 40 -9 5 -20 15
-26 21 -5 6 -28 24 -50 40 -51 37 -73 56 -97 78 -10 9 -20 17 -23 17 -2 0 -51
37 -108 83 -57 45 -119 93 -137 107 -39 29 -93 72 -100 80 -3 3 -30 23 -60 45
-30 22 -57 42 -60 45 -3 4 -68 56 -145 115 -77 60 -142 112 -145 115 -3 3 -43
34 -90 69 -47 36 -99 76 -116 90 -56 47 -70 57 -126 99 -30 22 -61 46 -69 54
-8 7 -52 42 -99 78 -47 35 -96 75 -110 87 -14 13 -28 23 -32 23 -3 0 -13 6
-20 13 -16 15 -65 55 -104 84 -16 12 -78 61 -139 108 -60 47 -112 85 -115 85
-3 0 -6 -775 -5 -1722 0 -948 -1 -1729 -3 -1735 -4 -13 -69 29 -85 54 -4 7
-14 13 -22 13 -7 0 -15 4 -17 8 -1 5 -43 40 -93 78 -49 37 -92 71 -95 74 -3 3
-32 25 -65 49 -33 25 -62 47 -65 50 -3 3 -32 26 -65 51 -33 24 -67 50 -75 58
-8 7 -69 54 -135 105 -138 105 -117 89 -223 172 -45 36 -86 65 -91 65 -5 0
-11 3 -13 8 -3 7 -42 40 -98 82 -68 52 -276 212 -305 236 -16 13 -86 67 -155
120 -69 52 -138 106 -155 119 -16 13 -113 88 -215 166 -102 79 -248 192 -325
251 -77 60 -151 117 -164 126 -13 9 -28 22 -35 27 -6 6 -40 33 -76 60 -36 27
-69 53 -75 57 -77 61 -223 173 -270 208 -33 25 -62 47 -65 50 -3 3 -66 52
-140 109 -74 58 -136 108 -138 113 -2 4 -8 8 -13 8 -5 0 -17 7 -26 15 -10 8
-47 37 -83 65 -36 28 -73 57 -83 65 -9 8 -20 15 -23 15 -3 0 -11 6 -18 13 -7
6 -28 24 -47 39 -152 118 -191 149 -244 188 -33 25 -73 57 -90 72 -16 16 -36
28 -42 28 -7 0 -13 4 -13 9 0 4 -26 26 -57 49 -32 22 -71 52 -87 66 -16 14
-32 26 -35 26 -3 0 -26 18 -51 40 -24 22 -50 40 -57 40 -7 0 -13 4 -13 8 0 5
-18 21 -41 38 -22 16 -46 34 -52 39 -7 6 -43 34 -82 64 -38 30 -76 58 -82 64
-10 7 -13 -109 -13 -576z"/>
</g>
</svg>
